<?xml version="1.0" encoding="UTF-8" standalone="no"?>
<svg
   xmlns:dc="http://purl.org/dc/elements/1.1/"
   xmlns:cc="http://creativecommons.org/ns#"
   xmlns:rdf="http://www.w3.org/1999/02/22-rdf-syntax-ns#"
   xmlns:svg="http://www.w3.org/2000/svg"
   xmlns="http://www.w3.org/2000/svg"
   xmlns:sodipodi="http://sodipodi.sourceforge.net/DTD/sodipodi-0.dtd"
   xmlns:inkscape="http://www.inkscape.org/namespaces/inkscape"
   version="1.1"
   x="0px"
   y="0px"
   viewBox="0 0 32 32"
   enable-background="new 0 0 100 100"
   xml:space="preserve"
   id="svg16"
   sodipodi:docname="magic-wand-symbolic.svg"
   width="32"
   height="32"
   inkscape:version="0.92.2 (5c3e80d, 2017-08-06)"><metadata
     id="metadata22"><rdf:RDF><cc:Work
         rdf:about=""><dc:format>image/svg+xml</dc:format><dc:type
           rdf:resource="http://purl.org/dc/dcmitype/StillImage" /><dc:title></dc:title></cc:Work></rdf:RDF></metadata><defs
     id="defs20" /><sodipodi:namedview
     pagecolor="#ffffff"
     bordercolor="#666666"
     borderopacity="1"
     objecttolerance="10"
     gridtolerance="10"
     guidetolerance="10"
     inkscape:pageopacity="0"
     inkscape:pageshadow="2"
     inkscape:window-width="3200"
     inkscape:window-height="1674"
     id="namedview18"
     showgrid="false"
     inkscape:zoom="42.720563"
     inkscape:cx="16.332933"
     inkscape:cy="17.014164"
     inkscape:window-x="0"
     inkscape:window-y="60"
     inkscape:window-maximized="1"
     inkscape:current-layer="svg16" /><path
     d="m 2.9097793,29.598484 c 0.7280535,0.728054 1.5521243,1.084623 1.840176,0.796571 v 0 L 24.524859,10.619685 C 24.813378,10.331167 24.456813,9.5070963 23.728755,8.7790428 23.000701,8.0509893 22.176631,7.6944199 21.888579,7.9829385 L 2.1132092,27.758308 v 4.66e-4 c -0.2885186,0.288052 0.068517,1.111657 0.7965701,1.83971 z M 21.888112,9.3015444 c 0.145424,-0.1454242 0.55746,0.032624 0.921953,0.3966538 0.364493,0.3640268 0.541613,0.7765288 0.396654,0.9219528 l -4.861459,4.861458 -1.31814,-1.31814 z"
     id="path2"
     inkscape:connector-curvature="0"
     style="fill:#bebebe;fill-opacity:1;stroke-width:0.46610343" /><path
     d="M 25.198379,5.639371 C 21.834044,4.8530537 21.472814,5.029241 20.022766,8.1647179 20.808617,4.8008502 20.631964,4.4391543 17.496952,2.9891063 20.860355,3.7754224 21.22205,3.5992363 22.672564,0.46375784 21.886248,3.827626 22.062435,4.189323 25.198379,5.639371 Z"
     id="path4"
     inkscape:connector-curvature="0"
     style="fill:#bebebe;fill-opacity:1;stroke-width:0.46610343" /><path
     d="m 16.894423,8.6807585 c -1.940388,1.9851345 -1.97022,2.3072115 -0.417629,4.6088295 -1.9856,-1.940388 -2.307212,-1.969753 -4.609762,-0.417628 1.940853,-1.985135 1.970684,-2.306746 0.417628,-4.6088302 1.9856,1.9403882 2.308144,1.9697532 4.609763,0.4176287 z"
     id="path6"
     inkscape:connector-curvature="0"
     style="fill:#bebebe;fill-opacity:1;stroke-width:0.46610343" /><path
     d="m 18.306108,8.6764997 c -1.466362,-1.1946229 -1.686829,-1.1946229 -3.154122,0 1.194623,-1.4668263 1.194623,-1.687294 0,-3.1541208 1.466828,1.1946223 1.687294,1.1946223 3.154122,0 -1.195556,1.4668268 -1.195556,1.6872945 0,3.1541208 z"
     id="path8"
     inkscape:connector-curvature="0"
     style="fill:#bebebe;fill-opacity:1;stroke-width:0.46610343" /></svg>