<?xml version="1.0" encoding="UTF-8" standalone="no"?>
<!-- Generator: Adobe Illustrator 17.1.0, SVG Export Plug-In . SVG Version: 6.00 Build 0)  -->

<svg
   xmlns:dc="http://purl.org/dc/elements/1.1/"
   xmlns:cc="http://creativecommons.org/ns#"
   xmlns:rdf="http://www.w3.org/1999/02/22-rdf-syntax-ns#"
   xmlns:svg="http://www.w3.org/2000/svg"
   xmlns="http://www.w3.org/2000/svg"
   xmlns:sodipodi="http://sodipodi.sourceforge.net/DTD/sodipodi-0.dtd"
   xmlns:inkscape="http://www.inkscape.org/namespaces/inkscape"
   version="1.1"
   id="Capa_1"
   x="0px"
   y="0px"
   viewBox="0 0 32 32"
   xml:space="preserve"
   sodipodi:docname="sticker-symbolic.svg"
   width="32"
   height="32"
   inkscape:version="0.92.2 (5c3e80d, 2017-08-06)"><metadata
     id="metadata39"><rdf:RDF><cc:Work
         rdf:about=""><dc:format>image/svg+xml</dc:format><dc:type
           rdf:resource="http://purl.org/dc/dcmitype/StillImage" /><dc:title></dc:title></cc:Work></rdf:RDF></metadata><defs
     id="defs37" /><sodipodi:namedview
     pagecolor="#ffffff"
     bordercolor="#666666"
     borderopacity="1"
     objecttolerance="10"
     gridtolerance="10"
     guidetolerance="10"
     inkscape:pageopacity="0"
     inkscape:pageshadow="2"
     inkscape:window-width="3200"
     inkscape:window-height="1674"
     id="namedview35"
     showgrid="false"
     inkscape:zoom="24.163214"
     inkscape:cx="22.085786"
     inkscape:cy="21.809472"
     inkscape:window-x="0"
     inkscape:window-y="60"
     inkscape:window-maximized="1"
     inkscape:current-layer="Capa_1" /><path
     d="M 26.370415,5.7123559 C 23.649635,2.9916414 20.032228,1.4932637 16.184536,1.4932637 c -3.847692,0 -7.4650995,1.4983777 -10.1858792,4.2190922 -2.7207797,2.720714 -4.2190922,6.3381871 -4.2190922,10.1858791 0,3.847692 1.4983777,7.465099 4.2190922,10.185879 2.7207145,2.720779 6.3381872,4.219092 10.1858792,4.219092 3.847692,0 7.465099,-1.498378 10.185879,-4.219092 2.72078,-2.720715 4.219092,-6.338187 4.219092,-10.185879 0,-3.847692 -1.498377,-7.4650991 -4.219092,-10.1858791 z M 3.0831819,15.898235 c 0,-7.2241261 5.8772282,-13.101354 13.1013541,-13.101354 5.589455,0 10.37171,3.5187889 12.250157,8.457087 -0.90269,-0.174489 -1.823891,-0.262875 -2.751154,-0.262875 -3.847692,0 -7.465099,1.498378 -10.185879,4.219093 -2.720714,2.720779 -4.219092,6.338187 -4.219092,10.185879 0,0.927849 0.08852,1.849637 0.263265,2.752913 C 6.6026879,26.270922 3.0831819,21.488211 3.0831819,15.898235 Z m 9.4989381,9.49783 c 0,-7.224126 5.877228,-13.101354 13.101354,-13.101354 0.826428,0 1.647186,0.07685 2.451843,0.229045 L 12.811231,27.848234 C 12.658968,27.043381 12.58212,26.222558 12.58212,25.396065 Z m 3.602416,3.603524 c -0.837313,0 -1.65618,-0.07991 -2.450279,-0.230806 L 29.055085,13.44763 c 0.150893,0.794164 0.230805,1.613161 0.230805,2.450605 0,7.224125 -5.877228,13.101354 -13.101354,13.101354 z"
     id="path2"
     inkscape:connector-curvature="0"
     style="stroke-width:0.06518087;fill:#bebebe;fill-opacity:1" /><g
     id="g4"
     transform="matrix(0.06518086,0,0,0.06518086,1.7795646,1.4932637)"
     style="fill:#bebebe;fill-opacity:1" /><g
     id="g6"
     transform="matrix(0.06518086,0,0,0.06518086,1.7795646,1.4932637)"
     style="fill:#bebebe;fill-opacity:1" /><g
     id="g8"
     transform="matrix(0.06518086,0,0,0.06518086,1.7795646,1.4932637)"
     style="fill:#bebebe;fill-opacity:1" /><g
     id="g10"
     transform="matrix(0.06518086,0,0,0.06518086,1.7795646,1.4932637)"
     style="fill:#bebebe;fill-opacity:1" /><g
     id="g12"
     transform="matrix(0.06518086,0,0,0.06518086,1.7795646,1.4932637)"
     style="fill:#bebebe;fill-opacity:1" /><g
     id="g14"
     transform="matrix(0.06518086,0,0,0.06518086,1.7795646,1.4932637)"
     style="fill:#bebebe;fill-opacity:1" /><g
     id="g16"
     transform="matrix(0.06518086,0,0,0.06518086,1.7795646,1.4932637)"
     style="fill:#bebebe;fill-opacity:1" /><g
     id="g18"
     transform="matrix(0.06518086,0,0,0.06518086,1.7795646,1.4932637)"
     style="fill:#bebebe;fill-opacity:1" /><g
     id="g20"
     transform="matrix(0.06518086,0,0,0.06518086,1.7795646,1.4932637)"
     style="fill:#bebebe;fill-opacity:1" /><g
     id="g22"
     transform="matrix(0.06518086,0,0,0.06518086,1.7795646,1.4932637)"
     style="fill:#bebebe;fill-opacity:1" /><g
     id="g24"
     transform="matrix(0.06518086,0,0,0.06518086,1.7795646,1.4932637)"
     style="fill:#bebebe;fill-opacity:1" /><g
     id="g26"
     transform="matrix(0.06518086,0,0,0.06518086,1.7795646,1.4932637)"
     style="fill:#bebebe;fill-opacity:1" /><g
     id="g28"
     transform="matrix(0.06518086,0,0,0.06518086,1.7795646,1.4932637)"
     style="fill:#bebebe;fill-opacity:1" /><g
     id="g30"
     transform="matrix(0.06518086,0,0,0.06518086,1.7795646,1.4932637)"
     style="fill:#bebebe;fill-opacity:1" /><g
     id="g32"
     transform="matrix(0.06518086,0,0,0.06518086,1.7795646,1.4932637)"
     style="fill:#bebebe;fill-opacity:1" /></svg>